<svg viewBox="0 0 100 110" xmlns="http://www.w3.org/2000/svg" fill="none">
  <!-- G body (medium-dark blue, behind everything) -->
  <path d="M48,20 C28,20 14,36 14,56 C14,78 28,96 50,96 C67,96 78,85 80,70 L80,52 L54,52 L54,63 L67,63 C63,75 57,82 50,82 C34,82 27,68 27,56 C27,40 36,28 48,28 Z" fill="#1a56e8"/>

  <!-- Dark navy diagonal bar (left arch leg, goes all the way down) -->
  <line x1="13" y1="97" x2="46" y2="7" stroke="#0d1e5c" stroke-width="16" stroke-linecap="round"/>

  <!-- Cyan right arch leg -->
  <line x1="50" y1="5" x2="73" y2="41" stroke="#29aae1" stroke-width="14" stroke-linecap="round"/>

  <!-- Cyan P stem -->
  <line x1="73" y1="41" x2="73" y2="98" stroke="#29aae1" stroke-width="14" stroke-linecap="round"/>

  <!-- Cyan P bowl -->
  <path d="M73,41 Q100,41 100,62 Q100,82 73,82" stroke="#29aae1" stroke-width="14" stroke-linecap="round" stroke-linejoin="round"/>
</svg>
